# xmcd CD database file
#
# Track frame offsets:
#	150
#	16240
#	32295
#	46855
#	60657
#	75682
#	87215
#	99840
#	113220
#	125027
#	139097
#	151847
#	166837
#	180817
#	195870
#	209527
#	220050
#	230930
#	243032
#	258257
#	272207
#
# Disc length: 3754 seconds
#
# Revision: 0
# Processed by: cddbd v1.5.2PL0 Copyright (c) Steve Scherf et al.
# Submitted via: ACXtractor (MTCDDB.DLL V2003.12.21)
#
DISCID=080ea815
DTITLE=Buddy Willaims - Under Western Skies
DYEAR=1995
DGENRE=Country
TTITLE0=Under Western Skies
TTITLE1=The Spice of Life
TTITLE2=Roley
TTITLE3=I went Home to Mother
TTITLE4=Teardrops
TTITLE5=Journey's End
TTITLE6=Rocking cowboy
TTITLE7=True Friends are so Few
TTITLE8=My sleepy Valley Home
TTITLE9=Please Light the Darkness for Me
TTITLE10=I've Forgotten How to Cry
TTITLE11=Snow on the Mountains
TTITLE12=Back to Alice Springs
TTITLE13=When Jeasus Calls
TTITLE14=The Cross of Jesus
TTITLE15=Way up North
TTITLE16=Pal of My Heart
TTITLE17=I'm Moving Out
TTITLE18=Pretty Girl
TTITLE19=I've Been Around
TTITLE20=A Letter to Slim
EXTD=ID3G:   2 YEAR: 1995
EXTT0=
EXTT1=
EXTT2=
EXTT3=
EXTT4=
EXTT5=
EXTT6=
EXTT7=
EXTT8=
EXTT9=
EXTT10=
EXTT11=
EXTT12=
EXTT13=
EXTT14=
EXTT15=
EXTT16=
EXTT17=
EXTT18=
EXTT19=
EXTT20=
PLAYORDER=
